<svg width="32" height="155" viewBox="0 0 32 155" fill="none" xmlns="http://www.w3.org/2000/svg">
<path d="M0 155C3.15428 155 3.54658 155 5.71428 155L5.71428 136.76C5.71428 131.091 10.3314 126.474 16 126.474C21.6686 126.474 26.2857 131.091 26.2857 136.76V149.285H13.1657C13.1657 152.44 13.1657 152.007 13.1657 155H26.2857C29.44 155 32 152.44 32 149.285V136.76C32 127.937 24.8229 120.76 16 120.76C7.17715 120.76 0 127.937 0 136.76L0 155ZM13.1657 141.377L18.8343 137.857L13.1657 134.382L13.1657 141.377Z" fill="#F4F9FB"/>
<path d="M13.1657 115.409H32C32 112.163 32 112.849 32 109.694H18.8343V100.734L32 87.5687C32 85.473 32 84.093 32 79.4772L18.8343 92.643V90.5858C18.8343 87.9801 17.7829 85.6487 16.0914 83.9116C16.0457 83.9116 16.0457 83.8658 16 83.8201C14.3086 82.1744 11.9771 81.1687 9.41714 81.1687C4.20571 81.1687 0 85.3744 0 90.5858L0 115.409C1.6883 115.409 5.71428 115.409 5.71428 115.409C5.71428 115.409 5.71428 111.16 5.71428 109.694L5.71428 90.5858C5.71428 88.5287 7.36 86.883 9.41714 86.883C11.4743 86.883 13.1657 88.5287 13.1657 90.5858L13.1657 115.409Z" fill="#F4F9FB"/>
<path d="M26.2857 65.3488L7.63428 56.9831L26.2857 48.6631C27.7419 48.0117 32 46.041 32 46.041C32 46.041 32 42.09 32 39.886L0 54.1488L0 59.8631L32 74.126C32 71.9861 32 67.9503 32 67.9503C32 67.9503 27.8006 66.0265 26.2857 65.3488ZM26.2857 60.5031L32 56.9831L26.2857 53.5088V60.5031Z" fill="#F4F9FB"/>
<path d="M20.4343 17.3918L32 27.0832V34.5347L16 21.1404L2.7909e-07 34.5347L1.39944e-05 26.9465C1.64541 25.4934 4.00173 23.7597 5.71429 22.329L11.5657 17.3918H20.4343Z" fill="#F4F9FB"/>
<path d="M20.4343 17.3918L32 7.70041L32 0.248986L16 13.6433L0 0.248986L1.40343e-05 7.8372C1.64541 9.29025 4.00173 11.0239 5.71429 12.4547L11.5657 17.3918H20.4343Z" fill="#F4F9FB"/>
</svg>
