<svg width="156" height="32" viewBox="0 0 156 32" fill="none" xmlns="http://www.w3.org/2000/svg">
<path d="M0.625151 0C0.625151 3.15428 0.624995 3.54658 0.625 5.71428H18.8651C24.5337 5.71428 29.1508 10.3314 29.1508 16C29.1508 21.6686 24.5337 26.2857 18.8651 26.2857H6.33943V13.1657C3.18515 13.1657 3.61752 13.1657 0.625151 13.1657V26.2857C0.625151 29.44 3.18515 32 6.33943 32H18.8651C27.688 32 34.8651 24.8229 34.8651 16C34.8651 7.17715 27.688 0 18.8651 0H0.625151ZM14.248 13.1657L17.768 18.8343L21.2423 13.1657H14.248Z" fill="#F4F9FB"/>
<path d="M40.2158 13.1657V32C43.462 32 42.7758 32 45.9301 32V18.8343H54.8901L68.0558 32C70.1515 32 71.5315 32 76.1473 32L62.9815 18.8343H65.0387C67.6444 18.8343 69.9758 17.7829 71.713 16.0914C71.713 16.0457 71.7587 16.0457 71.8044 16C73.4501 14.3086 74.4558 11.9771 74.4558 9.41714C74.4558 4.20571 70.2501 0 65.0387 0H40.2158C40.2158 1.6883 40.2158 5.71428 40.2158 5.71428C40.2158 5.71428 44.4641 5.71428 45.9301 5.71428H65.0387C67.0958 5.71428 68.7415 7.36 68.7415 9.41714C68.7415 11.4743 67.0958 13.1657 65.0387 13.1657H40.2158Z" fill="#F4F9FB"/>
<path d="M90.2757 26.2857L98.6414 7.63428L106.961 26.2857C107.613 27.7419 109.584 32 109.584 32C109.584 32 113.535 32 115.739 32L101.476 0H95.7614L81.4985 32C83.6384 32 87.6742 32 87.6742 32C87.6742 32 89.598 27.8006 90.2757 26.2857ZM95.1214 26.2857L98.6414 32L102.116 26.2857H95.1214Z" fill="#F4F9FB"/>
<path d="M138.233 20.4343L128.541 32H121.09L134.484 16L121.09 2.7909e-07L128.678 1.39944e-05C130.131 1.64541 131.865 4.00173 133.296 5.71429L138.233 11.5657V20.4343Z" fill="#F4F9FB"/>
<path d="M138.233 20.4343L147.924 32H155.376L141.981 16L155.376 0L147.787 1.40343e-05C146.334 1.64541 144.601 4.00173 143.17 5.71429L138.233 11.5657V20.4343Z" fill="#F4F9FB"/>
</svg>
